<?xml version="1.0" encoding="UTF-8" standalone="no"?>
<!DOCTYPE svg PUBLIC "-//W3C//DTD SVG 1.1//EN" "http://www.w3.org/Graphics/SVG/1.1/DTD/svg11.dtd">
<svg version="1.1" xmlns="http://www.w3.org/2000/svg" xmlns:xlink="http://www.w3.org/1999/xlink" preserveAspectRatio="xMidYMid meet" viewBox="0 0 640 640" width="640" height="200"><defs><path d="M103.85 385.28C100.09 385.28 97.14 388.39 97.14 391.99C97.14 391.99 97.14 391.99 97.14 391.99C97.14 395.76 100.25 398.71 103.85 398.71C114.72 398.71 201.6 398.71 212.46 398.71C216.23 398.71 219.18 395.6 219.18 391.99C219.18 391.99 219.18 391.99 219.18 391.99C219.18 388.39 216.06 385.28 212.46 385.28C190.74 385.28 114.72 385.28 103.85 385.28Z" id="aNeOKc2cx"></path><path d="M76.66 349.08C72.89 349.08 69.95 352.19 69.95 355.79C69.95 355.79 69.95 355.79 69.95 355.79C69.95 359.56 73.06 362.51 76.66 362.51C92.94 362.51 223.21 362.51 239.49 362.51C243.26 362.51 246.2 359.4 246.2 355.79C246.2 355.79 246.2 355.79 246.2 355.79C246.37 352.19 243.26 349.08 239.49 349.08C206.92 349.08 92.94 349.08 76.66 349.08Z" id="aCa0g1OTC"></path><path d="M67.65 312.87C63.89 312.87 60.94 315.99 60.94 319.59C60.94 319.59 60.94 319.59 60.94 319.59C60.94 323.36 64.05 326.31 67.65 326.31C73.53 326.31 120.58 326.31 126.46 326.31C130.23 326.31 133.18 323.19 133.18 319.59C133.18 319.59 133.18 319.59 133.18 319.59C133.18 315.99 130.23 312.87 126.46 312.87C114.7 312.87 73.53 312.87 67.65 312.87Z" id="c1XvC9yPKE"></path><path d="M76.66 276.67C72.89 276.67 69.95 279.79 69.95 283.39C69.95 283.39 69.95 283.39 69.95 283.39C69.95 287.16 73.06 290.1 76.66 290.1C81.64 290.1 121.48 290.1 126.46 290.1C130.23 290.1 133.18 286.99 133.18 283.39C133.18 283.39 133.18 283.39 133.18 283.39C133.18 279.79 130.23 276.67 126.46 276.67C116.5 276.67 81.64 276.67 76.66 276.67Z" id="a1KWITgy2c"></path><path d="M103.85 240.63C100.09 240.63 97.14 243.75 97.14 247.35C97.14 247.35 97.14 247.35 97.14 247.35C97.14 251.12 100.25 254.07 103.85 254.07C106.12 254.07 124.2 254.07 126.46 254.07C130.23 254.07 133.18 250.95 133.18 247.35C133.18 247.35 133.18 247.35 133.18 247.35C133.18 243.58 130.23 240.63 126.46 240.63C121.94 240.63 106.12 240.63 103.85 240.63Z" id="amZqnWCtS"></path><path d="M244.07 312.87C240.91 312.87 215.62 312.87 212.46 312.87C212.46 286.66 191.16 265.37 164.96 265.37C164.96 262.21 164.96 236.92 164.96 233.75C164.96 229.99 161.84 227.04 158.24 227.04C156.44 227.04 154.64 227.86 153.49 229C152.18 230.15 151.52 231.95 151.52 233.75C151.52 242.35 151.52 311.15 151.52 319.75C151.52 323.52 154.64 326.47 158.24 326.47C166.82 326.47 235.49 326.47 244.07 326.47C247.84 326.47 250.79 323.52 250.79 319.75C250.79 317.79 250.14 316.15 248.83 314.84C247.68 313.69 245.88 312.87 244.07 312.87ZM164.96 278.97C183.63 278.97 198.86 294.2 198.86 312.87C196.6 312.87 185.3 312.87 164.96 312.87C164.96 292.53 164.96 281.23 164.96 278.97Z" id="mCeDTwxVI"></path><path d="M339.08 308.62C338.18 308.62 333.65 308.62 325.49 308.62L325.49 349.24L300.26 349.24L300.26 230.15C322.38 230.15 334.66 230.15 337.12 230.15C367.42 230.15 385.93 242.6 385.93 268.48C385.93 296 366.28 308.62 339.08 308.62ZM336.79 248.33C336.05 248.33 332.33 248.33 325.65 248.33L325.65 289.94C332.53 289.94 336.35 289.94 337.12 289.94C351.04 290.1 359.89 284.7 359.89 268.48C359.89 254.56 351.7 248.33 336.79 248.33Z" id="c2Ti7YRoAb"></path><path d="M412.63 322.54L405.92 349.24L379.54 349.24L416.24 230.15L447.03 230.15L483.56 349.24L456.7 349.24L449.98 322.54L412.63 322.54ZM431.31 248.99L417.55 303.86L445.23 303.86L431.31 248.99Z" id="b24TrgYN0S"></path><path d="M561.04 256.36C552.69 249.48 544.34 246.37 534.67 246.37C524.35 246.37 517.31 250.79 517.31 259.31C517.31 267.5 521.73 270.94 541.22 277C562.68 283.88 576.44 292.89 576.44 314.84C576.44 336.63 559.24 352.02 530.41 352.02C510.59 352.02 496.18 344.98 486.35 335.32C487.64 333.89 497.99 322.49 499.29 321.06C508.13 328.44 517.47 332.86 529.76 332.86C542.04 332.86 550.23 326.96 550.23 316.48C550.23 306.98 545.65 302.88 527.46 297.31C501.75 289.29 491.43 278.97 491.43 260.78C491.43 240.47 508.95 227.2 533.03 227.2C550.56 227.53 562.68 232.77 573 242.44C570.61 245.22 562.24 254.97 561.04 256.36Z" id="alMAojGQD"></path><path d="M322.87 369.39C320.41 367.59 318.12 366.77 315 366.77C309.11 366.77 305.34 371.35 305.34 381.02C305.34 390.52 309.11 394.61 315 394.61C318.12 394.61 320.25 393.63 322.87 391.83C323.13 392.21 325.23 395.22 325.49 395.6C322.38 398.22 318.77 399.53 314.68 399.53C305.18 399.53 299.11 392.65 299.11 381.02C299.11 369.55 305.01 362.02 314.68 362.02C318.94 361.85 322.38 363 325.65 365.78C325.09 366.51 323.15 369.03 322.87 369.39Z" id="f3mLlaBZnx"></path><path d="M353.17 399.37C343.18 399.37 337.45 391.99 337.45 380.69C337.45 369.39 343.18 361.85 353.34 361.85C363.49 361.85 369.06 369.06 369.06 380.53C369.06 391.83 363.33 399.37 353.17 399.37ZM353.34 394.78C359.56 394.78 363 390.19 363 380.53C363 371.03 359.56 366.44 353.34 366.44C347.11 366.6 343.67 371.03 343.67 380.69C343.67 390.19 347.11 394.78 353.34 394.78Z" id="lcw1ARoV1"></path><path d="M412.96 398.71L407.23 398.71C407.23 383.77 407.23 375.47 407.23 373.81C407.23 368.24 404.93 366.44 401.33 366.44C397.07 366.44 394.29 369.06 391.83 372.99C391.83 374.71 391.83 383.28 391.83 398.71L386.1 398.71L386.1 362.67L391.01 362.67C391.31 365.92 391.47 367.72 391.5 368.08C394.12 364.31 397.89 361.85 402.81 361.85C409.19 361.85 412.96 366.11 412.96 372.83C412.96 376.28 412.96 384.91 412.96 398.71Z" id="ad70FRT7L"></path><path d="M452.93 369.39C450.47 367.59 448.18 366.77 445.07 366.77C439.17 366.77 435.4 371.35 435.4 381.02C435.4 390.52 439.17 394.61 445.07 394.61C448.18 394.61 450.31 393.63 452.93 391.83C453.19 392.21 455.29 395.22 455.55 395.6C452.44 398.22 448.84 399.53 444.74 399.53C435.24 399.53 429.18 392.65 429.18 381.02C429.18 369.55 435.08 362.02 444.74 362.02C449.16 361.85 452.44 363 455.72 365.78C455.16 366.51 453.21 369.03 452.93 369.39Z" id="iK0m0gZGV"></path><path d="M473.73 382.66C474.39 391.34 478.32 394.78 483.73 394.78C487.33 394.78 489.95 393.8 493.23 391.5C493.47 391.85 495.44 394.6 495.68 394.94C492.24 397.73 488.31 399.53 483.24 399.53C473.24 399.53 467.51 392.49 467.51 381.02C467.51 369.72 473.08 361.85 482.25 361.85C491.92 361.85 496.83 368.57 496.83 379.54C497 380.69 497 381.84 496.83 382.66C492.21 382.66 476.04 382.66 473.73 382.66ZM482.42 366.44C477.5 366.44 474.06 370.04 473.57 378.4C474.75 378.4 480.65 378.4 491.26 378.4L491.26 377.91C489.3 370.26 486.35 366.44 482.42 366.44Z" id="cwB8w4u4C"></path><path d="M530.08 399.37C525.99 399.37 522.71 397.89 520.58 395.11C520.58 396.25 520.58 401.99 520.58 412.31L514.85 412.96L514.85 362.67L519.76 362.67C520.06 365.62 520.22 367.26 520.26 367.59C522.88 363.82 526.64 361.85 530.9 361.85C540.4 361.85 544.17 369.22 544.17 380.53C544.17 391.5 539.42 399.37 530.08 399.37ZM529.59 366.44C525.66 366.44 522.55 369.22 520.58 372.17C520.58 373.97 520.58 388.39 520.58 390.19C522.55 393.14 525.33 394.78 528.77 394.78C534.83 394.78 538.11 390.19 538.11 380.53C538.11 371.03 535.16 366.44 529.59 366.44Z" id="a21rB34BNu"></path><path d="M571.2 399.53C565.3 399.53 561.7 396.09 561.7 389.54C561.7 388.05 561.7 380.63 561.7 367.26L555.47 367.26L555.47 362.67L561.7 362.67L561.7 354.48L567.43 353.83L567.43 362.67L576.11 362.67L575.46 367.09L567.43 367.09C567.43 380.27 567.43 387.58 567.43 389.05C567.43 392.81 568.74 394.61 572.02 394.61C573.66 394.61 575.3 394.12 576.93 393.14C577.08 393.4 577.79 394.71 579.06 397.07C575.79 398.71 573.17 399.53 571.2 399.53Z" id="b43roPjsm5"></path><path d="M640 216.85C640 216.85 640 216.85 640 216.85C640 337.05 640 403.83 640 417.18C640 417.18 640 417.18 640 417.18C256 417.18 42.67 417.18 0 417.18C0 417.18 0 417.18 0 417.18C0 296.98 0 230.2 0 216.85C0 216.85 0 216.85 0 216.85C384 216.85 597.33 216.85 640 216.85Z" id="b10VNtgWtV"></path></defs><g><g><g><use xlink:href="#aNeOKc2cx" opacity="1" fill="#039be5" fill-opacity="1"></use><g><use xlink:href="#aNeOKc2cx" opacity="1" fill-opacity="0" stroke="#000000" stroke-width="1" stroke-opacity="0"></use></g></g><g><use xlink:href="#aCa0g1OTC" opacity="1" fill="#039be5" fill-opacity="1"></use><g><use xlink:href="#aCa0g1OTC" opacity="1" fill-opacity="0" stroke="#000000" stroke-width="1" stroke-opacity="0"></use></g></g><g><use xlink:href="#c1XvC9yPKE" opacity="1" fill="#039be5" fill-opacity="1"></use><g><use xlink:href="#c1XvC9yPKE" opacity="1" fill-opacity="0" stroke="#000000" stroke-width="1" stroke-opacity="0"></use></g></g><g><use xlink:href="#a1KWITgy2c" opacity="1" fill="#039be5" fill-opacity="1"></use><g><use xlink:href="#a1KWITgy2c" opacity="1" fill-opacity="0" stroke="#000000" stroke-width="1" stroke-opacity="0"></use></g></g><g><use xlink:href="#amZqnWCtS" opacity="1" fill="#039be5" fill-opacity="1"></use><g><use xlink:href="#amZqnWCtS" opacity="1" fill-opacity="0" stroke="#000000" stroke-width="1" stroke-opacity="0"></use></g></g><g><use xlink:href="#mCeDTwxVI" opacity="1" fill="#039be5" fill-opacity="1"></use><g><use xlink:href="#mCeDTwxVI" opacity="1" fill-opacity="0" stroke="#000000" stroke-width="1" stroke-opacity="0"></use></g></g><g><use xlink:href="#c2Ti7YRoAb" opacity="1" fill="#212121" fill-opacity="1"></use><g><use xlink:href="#c2Ti7YRoAb" opacity="1" fill-opacity="0" stroke="#000000" stroke-width="1" stroke-opacity="0"></use></g></g><g><use xlink:href="#b24TrgYN0S" opacity="1" fill="#212121" fill-opacity="1"></use><g><use xlink:href="#b24TrgYN0S" opacity="1" fill-opacity="0" stroke="#000000" stroke-width="1" stroke-opacity="0"></use></g></g><g><use xlink:href="#alMAojGQD" opacity="1" fill="#212121" fill-opacity="1"></use><g><use xlink:href="#alMAojGQD" opacity="1" fill-opacity="0" stroke="#000000" stroke-width="1" stroke-opacity="0"></use></g></g><g><use xlink:href="#f3mLlaBZnx" opacity="1" fill="#039be5" fill-opacity="1"></use><g><use xlink:href="#f3mLlaBZnx" opacity="1" fill-opacity="0" stroke="#000000" stroke-width="1" stroke-opacity="0"></use></g></g><g><use xlink:href="#lcw1ARoV1" opacity="1" fill="#039be5" fill-opacity="1"></use><g><use xlink:href="#lcw1ARoV1" opacity="1" fill-opacity="0" stroke="#000000" stroke-width="1" stroke-opacity="0"></use></g></g><g><use xlink:href="#ad70FRT7L" opacity="1" fill="#039be5" fill-opacity="1"></use><g><use xlink:href="#ad70FRT7L" opacity="1" fill-opacity="0" stroke="#000000" stroke-width="1" stroke-opacity="0"></use></g></g><g><use xlink:href="#iK0m0gZGV" opacity="1" fill="#039be5" fill-opacity="1"></use><g><use xlink:href="#iK0m0gZGV" opacity="1" fill-opacity="0" stroke="#000000" stroke-width="1" stroke-opacity="0"></use></g></g><g><use xlink:href="#cwB8w4u4C" opacity="1" fill="#039be5" fill-opacity="1"></use><g><use xlink:href="#cwB8w4u4C" opacity="1" fill-opacity="0" stroke="#000000" stroke-width="1" stroke-opacity="0"></use></g></g><g><use xlink:href="#a21rB34BNu" opacity="1" fill="#039be5" fill-opacity="1"></use><g><use xlink:href="#a21rB34BNu" opacity="1" fill-opacity="0" stroke="#000000" stroke-width="1" stroke-opacity="0"></use></g></g><g><use xlink:href="#b43roPjsm5" opacity="1" fill="#039be5" fill-opacity="1"></use><g><use xlink:href="#b43roPjsm5" opacity="1" fill-opacity="0" stroke="#000000" stroke-width="1" stroke-opacity="0"></use></g></g><g><use xlink:href="#b10VNtgWtV" opacity="1" fill="#000000" fill-opacity="0"></use><g><use xlink:href="#b10VNtgWtV" opacity="1" fill-opacity="0" stroke="#000000" stroke-width="1" stroke-opacity="0"></use></g></g></g></g></svg>