<?xml version="1.0" encoding="utf-8"?>
<!-- Generator: Adobe Illustrator 22.1.0, SVG Export Plug-In . SVG Version: 6.00 Build 0)  -->
<svg version="1.1" id="Layer_1" xmlns="http://www.w3.org/2000/svg" xmlns:xlink="http://www.w3.org/1999/xlink" x="0px" y="0px"
	 viewBox="0 0 279.5 323.3" style="enable-background:new 0 0 279.5 323.3;" xml:space="preserve">
<style type="text/css">
	.st0{fill:#039BE5;}
	.st1{fill:#212121;}
	.st2{fill:none;}
</style>
<g>
	<g>
		<g>
			<g>
				<path class="st0" d="M173,133.5h-66.1c-2.3,0-4.1,1.8-4.1,4.1v0c0,2.3,1.8,4.1,4.1,4.1H173c2.3,0,4.1-1.8,4.1-4.1v0
					C177.1,135.4,175.3,133.5,173,133.5z"/>
			</g>
			<g>
				<path class="st0" d="M189.5,111.5H90.4c-2.3,0-4.1,1.8-4.1,4.1v0c0,2.3,1.8,4.1,4.1,4.1h99.1c2.3,0,4.1-1.8,4.1-4.1v0
					C193.6,113.4,191.8,111.5,189.5,111.5z"/>
			</g>
			<g>
				<path class="st0" d="M120.7,89.5H84.9c-2.3,0-4.1,1.8-4.1,4.1v0c0,2.3,1.8,4.1,4.1,4.1h35.8c2.3,0,4.1-1.8,4.1-4.1v0
					C124.8,91.3,122.9,89.5,120.7,89.5z"/>
			</g>
			<g>
				<path class="st0" d="M120.7,67.5H90.4c-2.3,0-4.1,1.8-4.1,4.1v0c0,2.3,1.8,4.1,4.1,4.1h30.3c2.3,0,4.1-1.8,4.1-4.1v0
					C124.8,69.3,122.9,67.5,120.7,67.5z"/>
			</g>
			<g>
				<path class="st0" d="M120.7,45.4h-13.8c-2.3,0-4.1,1.8-4.1,4.1v0c0,2.3,1.8,4.1,4.1,4.1h13.8c2.3,0,4.1-1.8,4.1-4.1v0
					C124.8,47.3,122.9,45.4,120.7,45.4z"/>
			</g>
			<g>
				<path class="st0" d="M195.2,90.7c-0.7-0.7-1.8-1.2-2.9-1.2l-19.3,0c0-15.9-13-28.9-28.9-28.9V41.3c0-2.3-1.9-4.1-4.1-4.1
					c-1.1,0-2.2,0.5-2.9,1.2c-0.8,0.7-1.2,1.8-1.2,2.9v52.3c0,2.3,1.9,4.1,4.1,4.1h52.3c2.3,0,4.1-1.8,4.1-4.1
					C196.4,92.5,195.9,91.5,195.2,90.7z M144.1,89.5V68.8c11.4,0,20.6,9.3,20.6,20.7L144.1,89.5z"/>
			</g>
		</g>
		<g>
			<g>
				<path class="st1" d="M107.3,191c0,13.5-9.5,19.7-22.9,19.7h-6.3V230H64.4v-57.9h18.7C98.1,172.1,107.3,178.3,107.3,191z
					 M93.1,191c0-6.2-3.4-9.1-10.2-9.1h-4.8v19h5.1C89.4,200.9,93.1,198.3,93.1,191z"/>
			</g>
			<g>
				<path class="st1" d="M144.5,217.6h-16.9l-2.9,12.5h-14.2l17.5-57.9h16.6l17.5,57.9h-14.6L144.5,217.6z M142.2,207.6l-6.1-25.6
					l-6.1,25.6H142.2z"/>
			</g>
			<g>
				<path class="st1" d="M212.6,178.1l-6.4,7.4c-4-3.3-8-4.9-12.7-4.9c-4.8,0-7.8,2-7.8,5.7s2.2,5.2,11.2,8c11,3.5,17.2,8,17.2,18.7
					c0,10.8-8.5,18.3-23,18.3c-10,0-17.2-3.7-22-8.3l6.9-7.6c4.3,3.6,8.9,5.7,14.6,5.7c5.7,0,9.2-2.7,9.2-7.1
					c0-4.3-2.2-6.2-10.6-8.8c-13-4-17.7-9.4-17.7-18c0-10.2,8.9-16.7,20.9-16.7C201.4,170.7,207.5,173.3,212.6,178.1z"/>
			</g>
		</g>
		<g>
			<g>
				<path class="st0" d="M59.4,246.3l-2.4,3.1c-2-1.5-4-2.2-6.6-2.2c-5,0-8.1,3.9-8.1,12c0,8.1,3.2,11.5,8.1,11.5
					c2.6,0,4.4-0.8,6.7-2.4l2.2,3.2c-2.6,2.2-5.6,3.3-9.1,3.3c-8.1,0-13.1-5.8-13.1-15.6c0-9.7,5-16.1,13.1-16.1
					C53.8,243,56.6,244,59.4,246.3z"/>
			</g>
			<g>
				<path class="st0" d="M90.6,258.8c0,9.5-4.9,15.9-13.4,15.9s-13.3-6.2-13.3-15.8c0-9.5,4.9-15.9,13.4-15.9
					C85.8,243,90.6,249.1,90.6,258.8z M69.1,258.9c0,8,2.9,11.9,8.1,11.9c5.2,0,8.2-3.9,8.2-12c0-8-2.9-11.9-8.1-11.9
					C72.1,246.9,69.1,250.8,69.1,258.9z"/>
			</g>
			<g>
				<path class="st0" d="M122.4,252.3V274h-4.8v-21c0-4.7-1.9-6.2-5-6.2c-3.6,0-6,2.2-8.1,5.6V274h-4.8v-30.3h4.1l0.4,4.5
					c2.2-3.1,5.4-5.2,9.5-5.2C119.3,243,122.4,246.5,122.4,252.3z"/>
			</g>
			<g>
				<path class="st0" d="M153.9,246.3l-2.4,3.1c-2-1.5-4-2.2-6.6-2.2c-5,0-8.1,3.9-8.1,12c0,8.1,3.2,11.5,8.1,11.5
					c2.6,0,4.4-0.8,6.7-2.4l2.2,3.2c-2.6,2.2-5.6,3.3-9.1,3.3c-8.1,0-13.1-5.8-13.1-15.6c0-9.7,5-16.1,13.1-16.1
					C148.3,243,151.1,244,153.9,246.3z"/>
			</g>
			<g>
				<path class="st0" d="M183.5,260.5H164c0.5,7.3,3.9,10.2,8.5,10.2c3.1,0,5.3-0.9,7.9-2.7l2.1,2.9c-2.9,2.4-6.3,3.8-10.4,3.8
					c-8.3,0-13.2-5.9-13.2-15.5c0-9.5,4.7-16.1,12.4-16.1c8.1,0,12.3,5.7,12.3,14.9C183.6,258.9,183.5,259.9,183.5,260.5z
					 M178.8,256.5c0-6.1-2.4-9.6-7.4-9.6c-4.2,0-7,3-7.4,10.1h14.9V256.5z"/>
			</g>
			<g>
				<path class="st0" d="M217.6,258.8c0,9.3-4,15.9-11.8,15.9c-3.4,0-6.2-1.2-8.1-3.6v14.5l-4.8,0.6v-42.4h4.1l0.4,4.2
					c2.2-3.1,5.4-4.9,9-4.9C214.3,243,217.6,249.2,217.6,258.8z M212.4,258.8c0-8.1-2.4-11.9-7.1-11.9c-3.3,0-5.9,2.3-7.5,4.8v15.1
					c1.6,2.4,4,3.9,7,3.9C209.7,270.7,212.4,266.9,212.4,258.8z"/>
			</g>
			<g>
				<path class="st0" d="M242.3,272.7c-2,1.3-4.1,2-6.7,2c-5,0-8-2.9-8-8.5v-18.8h-5.2v-3.7h5.2v-7l4.8-0.5v7.5h7.3l-0.5,3.7h-6.8
					V266c0,3.2,1.1,4.7,3.8,4.7c1.4,0,2.7-0.4,4.2-1.3L242.3,272.7z"/>
			</g>
		</g>
	</g>
	
		<rect x="-21.9" y="21.9" transform="matrix(-1.836970e-16 1 -1 -1.836970e-16 301.4038 21.9214)" class="st2" width="323.3" height="279.5"/>
</g>
</svg>
